<svg width="20" height="20" viewBox="0 0 20 20" fill="none" xmlns="http://www.w3.org/2000/svg">
<path d="M5.90208 20C5.40499 20 4.98123 19.823 4.63079 19.469C4.28035 19.115 4.10513 18.6895 4.10513 18.1924C4.10513 17.6954 4.28212 17.2716 4.6361 16.9212C4.99009 16.5707 5.41562 16.3955 5.91269 16.3955C6.40978 16.3955 6.83354 16.5725 7.18398 16.9265C7.53442 17.2805 7.70964 17.706 7.70964 18.2031C7.70964 18.7001 7.53265 19.1239 7.17867 19.4743C6.82468 19.8248 6.39915 20 5.90208 20ZM15.9146 20C15.4175 20 14.9937 19.823 14.6433 19.469C14.2929 19.115 14.1176 18.6895 14.1176 18.1924C14.1176 17.6954 14.2946 17.2716 14.6486 16.9212C15.0026 16.5707 15.4281 16.3955 15.9252 16.3955C16.4223 16.3955 16.8461 16.5725 17.1965 16.9265C17.5469 17.2805 17.7222 17.706 17.7222 18.2031C17.7222 18.7001 17.5452 19.1239 17.1912 19.4743C16.8372 19.8248 16.4117 20 15.9146 20ZM4.60576 3.47935L7.3592 9.18648H14.5682L17.6971 3.47935H4.60576ZM3.85482 1.97747H18.6001C18.9833 1.97747 19.2749 2.15269 19.4748 2.50313C19.6747 2.85357 19.6746 3.20401 19.4743 3.55444L16.0951 9.63705C15.9116 9.95411 15.6733 10.2086 15.3802 10.4005C15.0872 10.5924 14.7665 10.6884 14.418 10.6884H6.83354L5.43179 13.2916H17.7222V14.7935H5.65707C4.95619 14.7935 4.4514 14.5599 4.14268 14.0926C3.83396 13.6254 3.83813 13.0997 4.15519 12.5156L5.7572 9.56195L1.95244 1.50188H0V0H2.92866L3.85482 1.97747Z" fill="white"/>
</svg>
